<svg xmlns="http://www.w3.org/2000/svg" viewBox="0 0 1000 620" role="img" aria-label="AMIRESCAT">
  <g fill="none" stroke="#7a1f2b" stroke-width="6" stroke-linecap="round" stroke-linejoin="round">
    <!-- left tower -->
    <path d="M95 300 L95 130 L145 130 L145 90 L120 90 L120 70 L170 70 L170 90 L145 90" />
    <path d="M95 130 L60 130 L60 300" />
    <path d="M170 70 L200 45 L230 70" />
    <circle cx="200" cy="38" r="6" />
    <rect x="118" y="150" width="24" height="55" rx="12" />
    <rect x="75" y="150" width="18" height="45" rx="9" />
    <!-- right tower (mirrored) -->
    <path d="M905 300 L905 130 L855 130 L855 90 L880 90 L880 70 L830 70 L830 90 L855 90" />
    <path d="M905 130 L940 130 L940 300" />
    <path d="M830 70 L800 45 L770 70" />
    <circle cx="800" cy="38" r="6" />
    <rect x="858" y="150" width="24" height="55" rx="12" />
    <rect x="907" y="150" width="18" height="45" rx="9" />
    <!-- central facade -->
    <path d="M230 210 L230 150 L280 150 L280 120 L340 120 L340 90 L500 60 L660 90 L660 120 L720 120 L720 150 L770 150 L770 210" />
    <path d="M230 210 L230 300" />
    <path d="M770 210 L770 300" />
    <circle cx="500" cy="105" r="10" />
    <!-- arched windows -->
    <path d="M355 210 L355 150 Q355 130 375 130 Q395 130 395 150 L395 210" />
    <path d="M410 210 L410 150 Q410 130 430 130 Q450 130 450 150 L450 210" />
    <path d="M550 210 L550 150 Q550 130 570 130 Q590 130 590 150 L590 210" />
    <path d="M605 210 L605 150 Q605 130 625 130 Q645 130 645 210" />
    <path d="M470 220 L470 165 Q470 145 500 145 Q530 145 530 165 L530 220" />
    <path d="M270 250 L270 210 Q270 195 285 195 Q300 195 300 210 L300 250" />
    <path d="M700 250 L700 210 Q700 195 715 195 Q730 195 730 210 L730 250" />
    <!-- side tower windows -->
    <path d="M100 250 L100 210 Q100 195 115 195 Q130 195 130 210 L130 250" />
    <path d="M870 250 L870 210 Q870 195 885 195 Q900 195 900 210 L900 250" />
    <!-- gate arches -->
    <path d="M330 300 L330 260 Q330 245 350 245 Q370 245 370 260 L370 300" />
    <path d="M480 300 L480 255 Q480 235 500 235 Q520 235 520 255 L520 300" />
    <path d="M630 300 L630 260 Q630 245 650 245 Q670 245 670 260 L670 300" />
    <!-- gates (railing) -->
    <g stroke-width="4">
      <path d="M320 300 L380 300 M320 300 L320 285 M330 300 L330 280 M340 300 L340 280 M350 300 L350 278 M360 300 L360 280 M370 300 L370 280 M380 300 L380 285" />
      <path d="M470 300 L530 300 M470 300 L470 280 M480 300 L480 275 M490 300 L490 275 M500 300 L500 272 M510 300 L510 275 M520 300 L520 275 M530 300 L530 280" />
      <path d="M620 300 L680 300 M620 300 L620 285 M630 300 L630 280 M640 300 L640 280 M650 300 L650 278 M660 300 L660 280 M670 300 L670 280 M680 300 L680 285" />
    </g>
    <!-- base line -->
    <path d="M60 300 L940 300" stroke-width="7" />
  </g>
</svg>
